<?xml version="1.0" encoding="UTF-8"?>
<svg data-bbox="80.062 148.395 188.845 88.771" height="500" viewBox="0 0 375 375" width="500" xmlns="http://www.w3.org/2000/svg" data-type="color">
    <g>
        <defs>
            <clipPath id="5161a834-64c2-4859-8c75-77e28cc64d99">
                <path d="M80.059 148.395h54.75v70.5h-54.75Zm0 0"/>
            </clipPath>
        </defs>
        <g clip-path="url(#5161a834-64c2-4859-8c75-77e28cc64d99)">
            <path fill-rule="evenodd" d="M127.082 182.64v-.003l7.484 2.863v23.16l-27.25 10.434-27.254-10.434v-27.984l7.489 2.867v19.969c5.75 2.203 15.176 5.808 19.765 7.566l19.766-7.566v-12.856l-5.594-2.14V180.5Zm-39.531-7.117v.004l-7.489-2.867v-24.265h54.504v29.09l-7.484-2.864v-18.738H87.551v11.62l6.996 2.68v-9.331h25.539v35.195H102.03v8.055l-7.484-2.864V178.2Zm14.48-3.644v16.684h10.57V168.34h-10.57Zm0 0" fill="#ff7200" data-color="1"/>
        </g>
        <path d="m143.228 167.276 4.375-.437c.25 1.469.774 2.554 1.578 3.25.813.687 1.899 1.031 3.266 1.031 1.445 0 2.535-.3 3.266-.906.726-.614 1.094-1.336 1.094-2.172 0-.508-.157-.953-.47-1.328-.304-.375-.84-.692-1.609-.953-.53-.188-1.73-.508-3.593-.97-2.399-.6-4.078-1.335-5.047-2.202-1.367-1.219-2.047-2.707-2.047-4.469 0-1.133.316-2.191.953-3.172.645-.976 1.57-1.723 2.781-2.234 1.207-.52 2.66-.781 4.36-.781 2.789 0 4.882.609 6.28 1.828 1.407 1.218 2.15 2.851 2.235 4.89l-4.484.188c-.188-1.133-.602-1.946-1.234-2.438-.625-.5-1.57-.75-2.829-.75-1.304 0-2.328.258-3.078.766-.469.355-.703.824-.703 1.406 0 .512.223.953.672 1.328.563.48 1.93.98 4.11 1.5 2.187.512 3.8 1.043 4.843 1.594 1.04.543 1.852 1.293 2.438 2.25.593.96.89 2.14.89 3.547 0 1.262-.355 2.45-1.062 3.562-.7 1.106-1.696 1.934-2.985 2.485-1.293.539-2.898.812-4.812.812-2.813 0-4.977-.648-6.484-1.953-1.512-1.3-2.415-3.191-2.704-5.672Zm0 0" fill="#ffffff" data-color="2"/>
        <path d="M168.251 152.292h4.47v12.031c0 1.906.054 3.149.171 3.719.188.898.64 1.625 1.36 2.187.726.555 1.71.828 2.952.828 1.282 0 2.239-.257 2.875-.78.645-.532 1.036-1.173 1.172-1.923.133-.757.203-2.02.203-3.78v-12.282h4.5v11.656c0 2.668-.125 4.559-.375 5.672-.25 1.105-.703 2.031-1.359 2.781-.648.75-1.512 1.352-2.594 1.797-1.086.445-2.507.672-4.265.672-2.125 0-3.742-.242-4.844-.719-1.094-.488-1.96-1.125-2.594-1.906-.625-.79-1.039-1.613-1.234-2.469-.293-1.281-.438-3.16-.438-5.64Zm0 0" fill="#ffffff" data-color="2"/>
        <path d="M193.833 174.495v-22.203h6.688l4.03 15.14 3.97-15.14h6.734v22.203h-4.156v-17.453l-4.406 17.453h-4.313l-4.39-17.453v17.453Zm0 0" fill="#ff7200" data-color="1"/>
        <path d="M222.01 163.526c0-2.258.343-4.148 1.03-5.672a10.515 10.515 0 0 1 2.063-3.062c.875-.895 1.828-1.563 2.86-2 1.382-.57 2.988-.86 4.812-.86 3.258 0 5.867 1.016 7.828 3.047 1.969 2.024 2.953 4.84 2.953 8.453 0 3.575-.98 6.376-2.938 8.407-1.949 2.023-4.542 3.031-7.78 3.031-3.313 0-5.95-1.004-7.907-3.016-1.95-2.02-2.922-4.797-2.922-8.328Zm4.624-.125c0 2.5.582 4.403 1.75 5.703 1.164 1.305 2.64 1.953 4.422 1.953 1.79 0 3.254-.644 4.39-1.937 1.145-1.29 1.72-3.219 1.72-5.781 0-2.54-.563-4.438-1.688-5.688-1.117-1.25-2.59-1.875-4.422-1.875-1.844 0-3.336.633-4.469 1.89-1.136 1.263-1.703 3.173-1.703 5.735Zm0 0" fill="#ffffff" data-color="2"/>
        <path d="M250.317 174.495v-22.203h4.375l9.078 14.828v-14.828h4.156v22.203h-4.5l-8.953-14.484v14.484Zm0 0" fill="#ffffff" data-color="2"/>
        <path d="M96.037 237.01h-2.735l-1.531-5.938a36.895 36.895 0 0 1-.281-1.312c-.137-.664-.215-1.113-.235-1.344-.031.281-.11.73-.234 1.344a26.45 26.45 0 0 1-.297 1.328l-1.516 5.922H86.49l-2.891-11.313h2.36l1.453 6.172c.25 1.149.43 2.137.546 2.97.032-.29.098-.743.204-1.36a16.69 16.69 0 0 1 .312-1.438l1.656-6.344h2.266l1.64 6.344c.07.281.16.715.266 1.297.113.586.203 1.086.266 1.5.05-.406.129-.906.234-1.5.113-.601.219-1.094.313-1.469l1.437-6.172h2.36Zm0 0" fill="#ffffff" data-color="2"/>
        <path d="M111.457 237.01h-6.515v-11.313h6.516v1.97h-4.11v2.484h3.828v1.968h-3.828v2.907h4.11Zm0 0" fill="#ff7200" data-color="1"/>
        <path d="M118.419 225.697h3.516c1.601 0 2.765.231 3.484.688.726.46 1.094 1.184 1.094 2.172 0 .68-.157 1.234-.47 1.672-.312.43-.734.687-1.265.781v.078c.719.156 1.235.453 1.547.89.32.438.484 1.024.484 1.75 0 1.032-.374 1.84-1.124 2.423-.743.574-1.75.859-3.032.859h-4.234Zm2.406 4.485h1.39c.645 0 1.114-.098 1.407-.297.29-.207.438-.54.438-1 0-.438-.165-.75-.485-.938-.312-.187-.812-.28-1.5-.28h-1.25Zm0 1.906v2.938h1.563c.656 0 1.14-.125 1.453-.375.312-.25.469-.633.469-1.157 0-.937-.668-1.406-2-1.406Zm0 0" fill="#ffffff" data-color="2"/>
        <path d="M151.762 231.244c0 1.868-.53 3.293-1.593 4.282-1.063.992-2.594 1.484-4.594 1.484h-3.203v-11.313h3.547c1.851 0 3.289.493 4.312 1.47 1.02.968 1.531 2.327 1.531 4.077Zm-2.5.063c0-2.426-1.074-3.64-3.218-3.64h-1.266v7.359h1.016c2.312 0 3.468-1.239 3.468-3.72Zm0 0" fill="#ffffff" data-color="2"/>
        <path d="M165.212 237.01h-6.516v-11.313h6.516v1.97h-4.11v2.484h3.828v1.968h-3.828v2.907h4.11Zm0 0" fill="#ffffff" data-color="2"/>
        <path d="M178.619 225.697h2.422l-3.844 11.313h-2.61l-3.843-11.313h2.422l2.125 6.735c.125.398.25.86.375 1.39.125.532.203.899.234 1.094.051-.469.242-1.297.578-2.484Zm0 0" fill="#ffffff" data-color="2"/>
        <path d="M193.575 237.01h-6.516v-11.313h6.516v1.97h-4.11v2.484h3.828v1.968h-3.828v2.907h4.11Zm0 0" fill="#ffffff" data-color="2"/>
        <path d="M200.532 237.01v-11.313h2.406v9.329h4.578v1.984Zm0 0" fill="#ff7200" data-color="1"/>
        <path d="M224.357 231.338c0 1.875-.465 3.32-1.391 4.328-.93 1-2.258 1.5-3.984 1.5-1.743 0-3.075-.5-4-1.5-.93-1.008-1.391-2.457-1.391-4.344 0-1.882.46-3.32 1.39-4.312.938-.988 2.274-1.484 4.016-1.484 1.727 0 3.05.5 3.969 1.5.926 1 1.39 2.437 1.39 4.312Zm-8.25 0c0 1.262.238 2.215.718 2.86.477.636 1.196.953 2.157.953 1.906 0 2.859-1.27 2.859-3.813 0-2.55-.95-3.828-2.844-3.828-.96 0-1.683.324-2.172.969-.48.648-.718 1.601-.718 2.86Zm0 0" fill="#ffffff" data-color="2"/>
        <path d="M233.703 231.026h.781c.739 0 1.29-.145 1.657-.438.363-.289.547-.719.547-1.281 0-.563-.157-.973-.47-1.234-.304-.27-.78-.407-1.437-.407h-1.078Zm5.406-1.797c0 1.218-.382 2.152-1.14 2.797-.762.648-1.844.968-3.25.968h-1.016v4.016h-2.406v-11.313h3.61c1.374 0 2.413.297 3.124.891.719.594 1.078 1.477 1.078 2.64Zm0 0" fill="#ffffff" data-color="2"/>
        <path d="M252.357 237.01h-6.515v-11.313h6.515v1.97h-4.109v2.484h3.828v1.968h-3.828v2.907h4.11Zm0 0" fill="#ffffff" data-color="2"/>
        <path d="M261.718 230.713h.766c.758 0 1.316-.125 1.672-.375.363-.25.546-.644.546-1.187 0-.54-.187-.922-.562-1.141-.367-.227-.934-.344-1.703-.344h-.719Zm0 1.953v4.344h-2.406v-11.313h3.297c1.539 0 2.676.282 3.406.844.738.563 1.11 1.414 1.11 2.547 0 .668-.184 1.262-.548 1.781-.367.512-.886.918-1.562 1.22a525.758 525.758 0 0 0 3.328 4.921h-2.656l-2.703-4.344Zm0 0" fill="#ffffff" data-color="2"/>
        <path d="M149.79 201.77h-7.124v-.86c.781 0 1.3-.132 1.562-.406.27-.28.407-.734.407-1.359v-8.953c0-1.176-.543-1.766-1.625-1.766h-.375v-.86h8.109c1.633 0 2.93.356 3.89 1.063.97.7 1.454 1.637 1.454 2.813 0 1.2-.485 2.156-1.453 2.875-.961.719-2.29 1.078-3.985 1.078-.699 0-1.152-.035-1.36-.11-.21-.081-.312-.253-.312-.515 0-.238.086-.363.266-.375.176-.008.453-.016.828-.016.758 0 1.383-.218 1.875-.656.5-.445.75-1.144.75-2.094 0-1.02-.297-1.804-.89-2.359-.586-.563-1.36-.844-2.329-.844h-1.75v10.688c0 .68.141 1.148.422 1.406.29.262.836.39 1.64.39Zm0 0" fill="#ffffff" data-color="2"/>
        <path d="M171.03 201.77c-.261 0-.546-.125-.859-.375-.304-.258-.656-.64-1.062-1.14l-1.625-2.126a91.143 91.143 0 0 0-1.734-2.312 1.973 1.973 0 0 0-.454-.39c-.136-.094-.324-.141-.562-.141h-.75v3.78c0 .638.117 1.106.36 1.407.238.293.757.438 1.562.438v.859h-7v-.86c.812 0 1.347-.14 1.61-.421.257-.29.39-.75.39-1.375v-8.938c0-1.164-.563-1.75-1.688-1.75h-.312v-.86h8.765c1.332 0 2.438.337 3.313 1 .875.669 1.312 1.548 1.312 2.642 0 .906-.351 1.683-1.046 2.328-.688.648-1.579 1.07-2.672 1.265l.03.016c.438.492 1.095 1.312 1.97 2.469 1.03 1.304 1.785 2.21 2.265 2.718.54.586 1 .875 1.375.875v.813a63.317 63.317 0 0 1-3.187.078Zm-5.64-7.39c1.227 0 2.129-.227 2.703-.688.57-.457.86-1.192.86-2.203 0-1.957-1.11-2.977-3.328-3.063h-1.641v5.953Zm0 0" fill="#ffffff" data-color="2"/>
        <path d="M184.587 201.786c-1.605 0-2.98-.328-4.125-.985-1.148-.656-2.027-1.531-2.64-2.625a7.124 7.124 0 0 1-.922-3.562c0-1.508.363-2.832 1.094-3.969a7.535 7.535 0 0 1 2.875-2.64 8.23 8.23 0 0 1 3.906-.954c1.219 0 2.414.262 3.594.782a7.173 7.173 0 0 1 2.937 2.406c.781 1.086 1.172 2.453 1.172 4.11a7.794 7.794 0 0 1-.875 3.577c-.586 1.137-1.465 2.063-2.64 2.782-1.169.718-2.626 1.078-4.376 1.078Zm.344-.875c1.27 0 2.27-.52 3-1.563.738-1.039 1.11-2.453 1.11-4.234 0-2.164-.407-3.89-1.22-5.172-.804-1.29-1.913-1.938-3.327-1.938-1.149 0-2.125.493-2.938 1.47-.813.968-1.219 2.437-1.219 4.405 0 2.137.41 3.844 1.235 5.125.82 1.274 1.941 1.907 3.359 1.907Zm0 0" fill="#ffffff" data-color="2"/>
        <path d="M203.943 201.786h-8.015v-.86c.8 0 1.332-.133 1.594-.406.269-.281.406-.734.406-1.36v-8.859c0-.656-.137-1.125-.406-1.406-.262-.29-.793-.438-1.594-.438v-.859h8.89c2.239 0 4.024.649 5.36 1.938 1.332 1.293 2 2.949 2 4.968 0 2.086-.715 3.82-2.14 5.204-1.419 1.386-3.45 2.078-6.095 2.078Zm-.375-.86c1.739 0 3.051-.515 3.938-1.547.883-1.03 1.328-2.472 1.328-4.328 0-2.008-.492-3.61-1.469-4.797-.98-1.195-2.469-1.796-4.469-1.796h-1.874v10.218c0 .711.164 1.262.5 1.657.343.398 1.023.593 2.046.593Zm0 0" fill="#ff7200" data-color="1"/>
        <path d="M232.404 201.77h-6.938v-.86c.727 0 1.223-.14 1.484-.421.27-.29.407-.735.407-1.328v-4.125h-6.578v3.968c0 .75.14 1.25.421 1.5.29.25.797.387 1.516.407v.859h-7.078v-.86c.812 0 1.351-.132 1.625-.406.281-.28.422-.754.422-1.421v-8.891c0-.656-.149-1.113-.438-1.375-.281-.258-.82-.39-1.61-.39v-.86h7.079v.86c-.781 0-1.305.152-1.563.452-.25.293-.374.743-.374 1.344v3.719h6.578v-3.797c0-.55-.133-.973-.391-1.266-.262-.3-.79-.453-1.578-.453v-.86h7.016v.86c-.711 0-1.215.125-1.516.375-.305.242-.453.742-.453 1.5v8.735c0 .73.156 1.226.469 1.484.312.262.812.39 1.5.39Zm0 0" fill="#ffffff" data-color="2"/>
        <path d="M250.44 201.77h-6.516v-.86c1.04-.038 1.563-.394 1.563-1.062 0-.3-.09-.648-.266-1.047l-.984-2.468h-5.094l-.703 1.921c-.18.5-.266.907-.266 1.22 0 .835.5 1.312 1.5 1.437v.859h-4.859v-.86c.77-.1 1.328-.44 1.672-1.015.219-.383.476-.969.781-1.75l3.844-9.672-.422-.906h3.25l4.578 11.5c.469 1.23 1.11 1.844 1.922 1.844Zm-6.656-6.563-2.235-5.53-2 5.53Zm0 0" fill="#ffffff" data-color="2"/>
        <path d="M267.204 201.926h-1.344a38.304 38.304 0 0 0-1.688-1.953l-8.328-9.187v6.922c0 1.18.192 2.007.578 2.484.395.48 1.036.719 1.922.719v.859h-5.687v-.86h.156c1.438 0 2.156-.874 2.156-2.624v-8.5c-.75-.801-1.547-1.254-2.39-1.36v-.86h4.468l8.86 9.673v-5.516c0-1.156-.164-1.992-.485-2.516-.312-.519-.976-.78-1.984-.78v-.86h5.469v.86c-.805.03-1.344.265-1.625.702-.274.438-.406 1.172-.406 2.204v7.343c.03.867.109 1.625.234 2.282Zm0 0" fill="#ffffff" data-color="2"/>
    </g>
</svg>
